<?xml version="1.0" encoding="utf-8"?>
<!-- Generator: Adobe Illustrator 27.7.0, SVG Export Plug-In . SVG Version: 6.00 Build 0)  -->
<svg version="1.1" id="Layer_1" xmlns="http://www.w3.org/2000/svg" xmlns:xlink="http://www.w3.org/1999/xlink" x="0px" y="0px"
	 viewBox="0 0 720 720" style="enable-background:new 0 0 720 720;" xml:space="preserve">
<style type="text/css">
	.st0{fill:#FFFFFF;}
</style>
<image style="overflow:visible;" width="480" height="624" xlink:href="../../../image000001.jpg"  transform="matrix(1 0 0 1 -128.3869 -887.8316)">
</image>
<path class="st0" d="M178.8-383c-0.8,6.4,4.9,10.4,10.7,10.8c2.8,0.3,5.7,0.2,8.5,0.6c3.6,0.4,7.1,1.5,10.7,1.7
	c6.4,0.5,12.4-2.9,12.1-9.9c-1-13.7-19-18.8-30.2-15.2C185-393.5,179.5-389.2,178.8-383z"/>
<path class="st0" d="M194.6-389.7c-17.4-38.2,29.7-52.5,10.9-11.9C228.3-418.4,233.8-384.9,194.6-389.7z"/>
<image style="overflow:visible;" width="2100" height="2100" xlink:href="../../../Untitled - July 13, 2023 21.01.jpg"  transform="matrix(1 0 0 1 801.1119 -484.059)">
</image>
<path d="M301.7,1140.1c-15.5-16.9-14.4-37.5-12.7-57.9c2-24.5,11.2-46.6,25-66.7c17.5-25.5,42.6-38.9,72.3-45.2
	c5-1.1,10-1.8,15.1-1.9c19.4-0.2,33.6,9.3,40.4,27.7c4.7,12.7,5.7,25.9,4.2,39.3c-1.6,15-5.4,29.4-11.5,43.2
	c-0.7,1.5-1.8,2.9-1.1,5.2c1.3,0.5,2.9,1.1,4.4,1.6c24.4,7.1,32.6,26.6,28.8,50.4c-1.9,11.7-7.9,21.1-17.7,27.9
	c-14.6,10.1-29.9,18.5-48.6,17.1c-1.4-0.1-2.8,0.2-4.2,0.3c-0.2,0-0.4,0.3-1.2,0.8c1,2.8,3.6,4.7,5.4,7c18.5,23.6,26,50.2,19.5,79.5
	c-6.3,28.6-37.5,47-66.1,40.4c-12.2-2.8-23.9-7.2-34.8-13.2c-14.4-8-29.5-12.7-46.2-11.8c-5.6,0.3-11.3-0.7-16.9-1.3
	c-24-2.8-41.8-15.4-53.6-35.9c-11.7-20.3-9.5-41.5,2.2-60.5c17.3-28.4,44.6-41.5,77.3-44.1c6.4-0.5,12.9-0.1,19.3-0.1
	C301.1,1141.3,301.4,1140.7,301.7,1140.1z M302.3,1199.6c-3.4,2.6-3.4,2.6-4.2,6.1c1.7-1.9,3.8-3.5,4-6.2c2.4-0.9,3.5-2.8,4.6-5.7
	C303.9,1195.4,302.2,1196.8,302.3,1199.6z M313.7,1235.8c0.4-3.7,3.7-5.4,5.5-8.2c1.2-1.9,2.9-3.6,2-7.2c-3,3.9-5.4,6.9-7.8,9.9
	c-1.5,1.9-1.1,3.6,0.4,5.3c-0.4,3.9-4.4,5.5-5.8,8.8c-0.3,0.7-0.6,1.6,0.2,2.2c0.7,0.5,1.6,0.8,2.2,0c3.1-3.7,6-7.6,7.8-12.6
	C315.7,1234.2,315.3,1236.3,313.7,1235.8z M346.4,1150c-1.1-7.7,1.1-13.8,4.8-19.2c17.3-25.4,39.6-43.4,71.4-46.7
	c3.3-0.3,5.1-1.5,6.4-4.4c10.6-23.8,15.8-48.4,10.5-74.3c-4.2-20.6-18.4-33.4-37.7-32.2c-30.4,2-57.7,12.1-77.8,36.4
	c-23.7,28.6-33.8,61.7-31.7,98.5c0.6,10,3.6,19.4,9.5,27.7c3,4.2,6.7,6.5,11.8,7.3C324.3,1144.8,334.9,1146.6,346.4,1150z
	 M287.2,1211c0-11.9-2.9-22.8-6-33.7c-2.4-8.4-5.8-16.4-11.4-23.5c-2.8-3.6-5.2-4.5-9.2-3.1c-23.6,8.2-42.5,22.1-55,44.2
	c-3.1,5.5-5.2,11.3-5.5,17.7c-1.1,22.1,5.9,40.5,24.3,53.9c8.9,6.5,18.8,10.2,29.7,11.6c10.7,1.5,10.8,1.7,16.1-7.7
	C280.8,1251.8,286.3,1231.9,287.2,1211z M353.7,1153.4c8.8,4.5,17.3,9,24.6,15.2c4.9,4.1,10.5,5.5,16.5,5.4c9.1-0.2,18.1-0.9,27-2.9
	c22.1-5,36.6-23.1,36.6-45.7c0-3.9-0.5-7.9-1.1-11.8c-1.8-12.6-9.4-20-21.3-23.7c-4.3-1.3-7.2-0.9-9.8,3.5
	C409.7,1122.1,383.6,1139.3,353.7,1153.4z M293.6,1280.4c7.1,2.7,13.3,4.5,19.1,7.4c6.7,3.4,6.7,3.3,12.5-1.8
	c7.9-7,11.5-16.9,18.1-24.9c4.5-5.4,6.6-12.5,9-19.1c8.1-22.6,13-45.6,7.8-69.8c-1-4.5-2.9-7.6-7-9.8c-9-4.8-18.3-9-28.2-11.7
	c-2.3-0.6-4.7-1.7-7.3,0c12.2,21.6,15.3,44.2,9.9,67.9C322.1,1242.1,313.5,1264,293.6,1280.4z M399.1,1203.8
	c-1.2,12.8-3.1,25.2-6.6,37.4c-3.4,12-8.6,23.1-15.7,33.3c-7.2,10.5-16.4,19.2-26.7,28.1c7.9,3.5,15.5,5,21.8,3.1
	c18.8-5.5,36.1-13.7,42.8-34.6c1.9-6.1,2.1-12.3,2.4-18.4C418,1234.1,411.2,1218.1,399.1,1203.8z M423.3,1089.8
	c-1.7-0.4-2.2-0.6-2.8-0.6c-1.1,0-2.3-0.1-3.4,0.2c-28.7,6.4-50,22.7-64.5,48c-1.6,2.8-4.1,6.6-1.3,9.4c3.2,3.2,6.9,0.1,10-1.5
	c13.9-7.1,26.9-15.5,38.6-25.9C409.2,1111,417,1101.5,423.3,1089.8z M320.3,1165c-3.8,3.9,0.4,8.9-3.5,12.2
	C323.9,1174,323.9,1174,320.3,1165z M355.9,1289.9c-2,0.5-3.3,0.7-4.6,1.1c-1.2,0.4-3.2,0.3-2.6,2.3c0.6,1.8,2.4,2.4,4,1.2
	C354.2,1293.5,355.8,1292.5,355.9,1289.9z M280.5,1278.7c2.1,1,3.9,1.6,5.6,0.3c0.6-0.5,0.5-1.5-0.3-2
	C283.9,1275.7,282.2,1276.1,280.5,1278.7z M359.3,1283.7c0.7,0.4,1,0.6,1.2,0.6c1.8,0.3,3.3-0.1,4.3-1.8c0.3-0.6,0.3-1.2-0.3-1.4
	c-1.9-0.6-3.1,0.7-4.5,1.6C359.8,1282.8,359.7,1283.2,359.3,1283.7z"/>
<path d="M249.4,1795c2,19.8,1.8,40.8,1.7,61.8c0,1.7,0.2,3.3,0.2,5c-0.1,2.4-0.4,4.9-3.3,5.5c-3.1,0.7-5.3-1-6.3-3.7
	c-0.8-2.5-1.2-5.2-1.2-7.8c-0.6-20.9-2.5-41.9-1.3-62.8c1.5-27.2-2.9-53.7-8.5-80.1c-2.9-13.8-7.7-26.8-12.1-40
	c-8.2-24.6-37.4-25.8-50.8-10.7c-9.9,11.1-15.2,24.1-20.4,37.4c-2.5,6.5-3.5,13.4-4.7,20.3c-7.8,42.8-8.1,86-8,129.3
	c0,5.2,0.7,10.7-5.4,13.9c-3.3,1.8-4.9,1-6.4-1.7c-1.5-2.7-1.7-5.7-1.7-8.7c-0.6-43.3-2.2-86.7,4.1-129.7
	c3.9-26.4,13.3-51.5,34.2-69.4c21.3-18.2,45.6-20.2,67.1,5c14.6,17.2,18.3,38.9,20.7,60.5c1.4,12.5,1.7,25.2,2,37.9
	C249.7,1769.2,249.4,1781.5,249.4,1795z"/>
<path d="M1.4,1496c-41.1-32.3-69.8-72.3-91.9-117.7c0.9,11.1,4.9,21.1,8.7,31.1c3,8.1,6.4,16.1,9,24.3c2.8,8.6,2.5,8.7-6.6,11.4
	c9.2,16.2,21,31.1,25.9,50.6c-5.9-0.7-7.1-4.6-8.7-7.5c-15.2-28.1-33.5-54.1-52.9-79.5c-2.1-2.7-6.2-6.1-2.6-9.3
	c3.6-3.2,6.5,1.3,8.9,3.7c6.9,6.8,13.6,13.7,20.3,20.6c1.3,1.4,2.3,3.2,5.5,3.6c-3.4-9.4-6.8-18.3-9.9-27.3
	c-3.4-9.7-7.2-19.4-8.5-29.7c-0.3-2-0.3-4-0.4-6c-0.1-3-0.3-6.3,3.3-7.6c4-1.4,6.4,1.3,8.1,4.2c10.4,18.6,23.1,35.7,34.6,53.6
	c16.5,25.7,33.3,51.2,54.4,73.6C0.1,1489.6,2.2,1491,1.4,1496z"/>
<path d="M-102.9,1479.5c10,9.7,19.1,19.8,28.1,30.1c36.5,42,73.7,83.2,109.4,125.9c20.7,24.8,42,49.1,63,73.6c1.9,2.3,3.8,4.6,5.6,7
	c1.2,1.6,2.4,3.8,0.9,5.4c-1.9,1.8-3.5-0.1-4.9-1.6c-2.3-2.4-4.7-4.7-6.9-7.2c-43.8-50.1-87.5-100.4-131.5-150.4
	c-29.7-33.7-58.7-68.1-90.9-99.6c-2.4-2.4-7.6-4.8-4.9-8.6c3.2-4.5,7.1,0.7,10.4,1.9c4.3,1.6,8,4.6,12.8,5.8c2-3.4-1.2-5.5-1.7-8.2
	c-0.7-3.7,1.2-5.9,4.9-5.4c3.4,0.5,6,2.7,8.7,4.6c0.8,0.6,1.3,1.9,0.5,2.7c-5,4.7-0.3,7.5,2,10.8c0.2,0.3,0.4,0.5,0.6,0.8
	c2,3,5.2,5.8,3.9,9.8C-94.6,1482.2-99.4,1477.2-102.9,1479.5z"/>
<path d="M288,1729.6c-1.9-8.8,2.5-13.2,5.5-17.5c13.9-19.9,28-39.6,42.4-59.1c17.2-23.3,36.4-44.9,54.8-67.2
	c18-21.8,36.9-42.7,55.3-64.2c13.4-15.7,28.8-29.5,42.9-44.5c2.7-2.9,5.5-5.7,9.8-10.3c-8.2,2.2-12.2,7.1-17.3,10.2
	c-3.2,2-6.5,6.5-10.2,3c-4.2-4,1.3-6.9,3.2-10c1.6-2.5,3.4-5,5.5-7.1c2.3-2.3,4.7-5.4,8-0.9c1.8,2.4,3.5,0.2,5-0.8
	c5.1-3.1,10.2-6.2,15.4-9.3c2-1.2,4-2.5,6.1-3.3c1.9-0.7,4-0.9,5.4,1c1.3,1.8,1.1,3.7-0.6,5.4c-2.8,2.9-5.3,6-8.1,8.8
	c-19.4,19.1-39,38.1-57.1,58.5c-21.1,23.9-42.5,47.5-62.8,72.2c-16.6,20.3-34,40-50.4,60.5c-8.1,10.1-14.9,21.2-22.4,31.7
	C308.9,1700.6,299.1,1714.2,288,1729.6z"/>
<path d="M14,1411.7c-2.9,1.6-1.9,5-3.5,7c-0.9,1.1-2.1,1.8-3.4,1.6c-1.6-0.2-2.2-1.6-1.9-2.9c3.8-17.5-4.7-32.4-10.3-47.9
	c-6.1-16.9-10.4-34.4-13.1-52.1c-0.7-4.5-1.9-9.6,2.6-12.9c2.8-2,8.3,2.5,11.3,9.3c1.7,3.9,2.8,8.1,4.1,12.3
	c4.5,14.3,8.6,28.6,10,43.6c2,21.8,13.3,40.1,23.7,58.7c2.4,4.4,5.3,8.5,7.9,12.7c0.7,1.1,1.5,2.4-0.1,3.4c-1.2,0.8-2.5,1-3.6-0.1
	c-1.6-1.7-3.3-3.3-4.6-5.2c-4.2-6.4-8.5-12.8-12.4-19.3C18.8,1416.8,17.1,1413.7,14,1411.7z"/>
<path d="M366.5,1363.8c-3.5,2-5.9,3.8-8.6,4.8c-5.4,2.1-8.8-0.4-7.9-6.1c1.9-12.3,7.8-23.2,12.4-34.5c0.5-1.2,2-2,3.4-1.3
	c1.3,0.6,1.7,2.1,1.3,3.4c-0.7,2.5-1.5,5.1-2.5,7.5c-2.8,7-5.4,14.1-6.9,21.4c3.3,1,4.4-1.1,5.8-2.3c5.2-4.6,10.1-9.7,15.7-13.9
	c2.6-1.9,4.8-7.3,8.8-4.2c3.2,2.5-0.6,6-1.8,8.9c-2.1,5.2-4.7,10.3-7.3,15.3c-6.8,12.9-13.4,25.9-21.9,37.9
	c-9.5,13.6-18.2,27.8-26.7,42.1c-6.5,11.1-13.7,21.8-21.7,34c5.4-18.7,14.6-33.8,23.3-49c10.3-18.2,20.7-36.4,31-54.6
	C364.6,1370.8,366.4,1368.4,366.5,1363.8z"/>
<path d="M471,1402.6c-8.2,0.4-14,5-20.2,8.5c-7.8,4.5-15.3,9.4-23,14.1c-1.4,0.9-2.8,1.8-4.3,2.5c-3.6,1.7-7.4,4.3-11.1,1.2
	c-3.2-2.7,0.6-6,0.8-9.3c-4.2,0.7-5.9,5.7-10.4,4c-0.9-2.2,0.4-4,1.7-5.1c8.7-7.1,16.5-15.5,26.6-20.8c2.3-1.2,4.7-3.4,7-0.6
	c2.1,2.5-0.6,4-2,5.8c-2.4,3.1-4.6,6.3-7.6,10.4c3.9-0.2,5.8-2.2,7.8-3.5c10.5-6.5,21.6-11.7,33-16.4c2.4-1,4.9-2.1,7.7-1.7
	c3.6,0.6,5.5,2.5,4.2,6.2c-1.4,3.8-3.7,7-6.1,10.2c-9.1,12.3-20.3,22.7-30.4,34.1c-4.4,4.9-8.6,9.8-12.2,15.3
	c-1,1.5-2.1,4.1-4.5,2.1c-1.7-1.5-1.1-3.8,0.2-5.4c10.8-13.7,20.5-28.3,32.9-40.7C464.6,1410,467.7,1406.2,471,1402.6z"/>
<path d="M396.8,1519.5c11-13.7,21.3-26.7,31.8-39.5c14.9-18,31.5-34.3,48.5-50.3c2.7-2.6,4.2-4.2,1.2-8.1c-2.3-2.9,0.7-6.1,4.3-4.2
	c5.5,2.8,8-0.3,11-3.5c3-3.1,6-6.3,9.1-9.3c1.2-1.2,2.9-1.9,4.5-0.7c1.8,1.3,1.1,2.9,0.1,4.4c-2.5,3.5-5,7.1-7.7,10.5
	c-2.2,2.9-5.1,5.1-1.3,9.2c2.2,2.4-0.2,5.1-2.8,4c-6.1-2.6-9,1.1-12.6,4.7c-16.2,16.3-32.8,32.1-48.8,48.6
	c-10.2,10.5-19.3,22-30.2,31.9C402.4,1518.5,401.2,1520.3,396.8,1519.5z"/>
<path d="M63,1339.8c1.1,15,0.1,28.2-3.5,41.1c-1,3.5-2,7.1-3.7,10.2c-5,8.7-14.9,8.8-19.9,0.2c-3.5-5.9-4.3-12.3-0.8-19.3
	c4.4,3.9,3.3,9.6,5.8,13.6c1.2,1.9,1.8,4.5,4.7,4.4c2.3-0.1,3.1-2.1,4.2-3.8c2-3.2,2.9-6.7,3.6-10.3c2.5-12.7,5.3-25.4,1.5-38.4
	c-1-3.3-1.1-6.8,2.4-8.9c3-1.8,5.8-0.2,8.4,1.2c14,7.7,26.5,37.1,22.4,52.4c-0.7,2.5-1.9,4.9-3.1,7.3c-1,1.9-2.8,2.9-5,2.2
	c-2.8-0.8-2.1-3.1-1.5-4.9c6.1-17.4-3.1-30.8-11.6-44.3C66.5,1342,65.5,1341.6,63,1339.8z"/>
<path d="M164.2,1320c-2.3-0.4-3.2,1.5-4.1,3.2c-2.5,4.7-5,9.4-7.7,13.9c-1,1.6-2.7,3.4-4.9,1.8c-1.6-1.1-1.1-3-0.2-4.5
	c8.6-14,12.7-29.8,18.2-45c0.4-1.2,1-2.5,1.6-3.6c0.6-1.2,1.6-2.1,3.1-2.2c2-0.1,2.9,1.2,3.6,2.8c1.8,4.1,1.1,8.5,1.4,12.8
	c0.6,7.2,0.6,7.2,8.1,5.7c1.3-0.3,2.6-0.5,3.9-0.4c0.9,0.1,2,0.7,2.4,1.4c1,1.5-0.6,2.3-1.4,3.3c-0.2,0.2-0.5,0.4-0.8,0.5
	c-3.5,1.7-8.3,2.1-9.6,6.3c-1.2,3.8,1,7.8,1.9,11.7c1.3,6.1,3.2,12.2,4.9,18.2c0.4,1.6,1,3.2,1.3,4.8c0.4,2,0.5,4.2-1.8,5.1
	c-2.2,0.8-4-0.6-5.1-2.2c-1.5-2.1-2.7-4.5-3.7-7c-2.9-6.7-4.5-13.9-6.1-21C168.4,1323.2,168,1320.2,164.2,1320z"/>
<path d="M395.1,1394.6c-5.5-3.2-10-1.3-14,2.7c-1.9,1.9-3.6,3.9-5.6,5.6c-1.5,1.3-3.7,2.3-5.3,0.6c-1.9-1.9-0.2-3.7,1.2-5
	c7.7-7.3,14.8-15.2,23.2-21.7c6.8-5.3,12.4-12.1,20.3-16c2.1-1,3.9-2.8,6.1-0.3c2.1,2.3,1.1,4.2-0.1,6.3c-2,3.4-3.9,6.9-5.9,10.4
	c-1.3,2.3-3.1,4.7-2.3,7.4c1.2,3.8-0.7,5-3.5,6.9c-4.5,3-6.5,8.2-8.9,12.9c-3.9,7.7-7,15.7-10,23.9c-0.8,2.2-1.3,6-5,4.6
	c-2.9-1.1-2.7-4.4-2.2-7c1.4-7.2,4.4-13.9,7.3-20.6C392,1401.7,394.9,1398.7,395.1,1394.6z M396.2,1385.6c5.8,0,7.7-2.8,8.9-8.1
	C400.5,1379.2,398.3,1381.6,396.2,1385.6z"/>
<path d="M282.7,1296.4c-5.8-0.9-10.3,1.6-15,3c-1.9,0.6-3.8,1.3-5.7,2c-1.7,0.6-3.5,0.4-4.4-1.2c-1.1-2,0.7-3.1,2.1-3.8
	c5.6-2.9,11.6-5.4,17.9-5.8c4.4-0.3,10.4-2.9,12.9,1.7c3.1,5.5-3.2,8.7-6.2,12.4c-3.1,3.8-6.6,7.2-10.1,11c2.8,2.7,5.5,0.3,8-0.5
	c9.4-2.7,22.2,4.9,18.3,17.4c-5.8,18.9-18.4,32.8-35.2,43c-1.2,0.7-2.5,0.9-4.5-0.2c0.1-4.9,3.6-7.9,7-10.8
	c7.3-6.3,14.1-13.2,20.7-20.2c3.8-4,6.2-8.7,7.6-13.9c1.9-7.2-1-10.6-8.4-10.9c-5.9-0.2-10.9,2.9-16.4,3.9
	c-3.6,0.6-8.3,4.3-10.8-0.3c-2.5-4.5,2.8-6.7,5.5-9.4C271.6,1308.2,278.9,1304.4,282.7,1296.4z"/>
<path d="M104.8,1308.9c-1,10.3-0.3,18.6-0.8,26.8c-0.6,8.8-5.1,16.4-6.3,24.9c-0.4,2.5-2.6,4-5.3,2.8c-2.5-1.1-3.5-3.4-2.1-5.7
	c8.7-14.5,7.7-30.6,7.6-46.6c0-3.6-0.9-8.1,3.2-9.7c4-1.6,7.8,1.1,10.7,3.6c4.8,4.2,8.8,9.1,11.9,14.7c5.7,10.2,10,21,10.1,33
	c0,4.5-0.8,8.8-5.6,10.7c-2.8,1.1-5.5-0.5-4.5-3.1c5.8-14.5-2.4-25.7-8.1-37.5C113.3,1318.2,110.2,1313.9,104.8,1308.9z"/>
<path d="M335.6,1326.2c-9.5,4.3-14.1,10.4-18.9,16.2c-4.6,5.6-8.9,11.6-13.5,17.3c-1.1,1.4-2.5,2.3-4.2,0.8c-1.2-1.1-1-2.4-0.3-3.6
	c7.8-12.8,16.6-24.8,29-33.7c1.6-1.1,3.5-2,5.4-2.5c5.5-1.5,8.3,0.6,8.4,6.4c0.1,4.3-0.8,8.6-2.2,12.7c-1.6,4.4-3.2,8.8-4.6,13.2
	c-1.7,5.3-4.4,10.5-2,16.4c0.8,1.9,0.1,4.1-2,5.1c-2.6,1.2-4.5-0.4-6.1-2.1c-2-2.2-1.8-5-1.5-7.6c0.5-5.6,1.9-11.1,4.2-16.3
	C330.3,1341.8,333.5,1335.3,335.6,1326.2z"/>
<path d="M248.3,1296.2c-1.2,13.2-5.8,25.1-9.4,37.2c-4.5,15.6-9.7,31.1-13.7,46.9c-0.4,1.6-0.9,3.2-1.6,4.7
	c-0.4,0.9-1.1,1.9-2.2,1.5c-0.8-0.3-1.8-1-2.2-1.7c-1.7-3.6-0.6-7.3,0-10.8c2.7-14.1,6.9-27.7,11.6-41.3
	c4.2-12.2,7.4-24.8,11.4-37.2c0.7-2.2,0.1-6.4,4-5.7C250,1290.5,247.5,1294.4,248.3,1296.2z"/>
<path d="M-15.4,1407.4c0.1,2.5,0,6.5,0.6,10.4c0.9,5.8,3,11,9.9,11.9c1.8,0.2,3.3,0.8,3.3,2.9c0.1,2.3-1.2,3.7-3.2,4.5
	c-3.1,1.3-5.8,0.4-8.3-1.6c-4.7-3.8-8.6-8.6-10.7-14.1c-4.2-10.9-6.6-22.2-4.5-34.1c0.2-1.3,0.2-2.7,0.7-3.9c0.8-1.8,2-4,4-4.2
	c2.6-0.3,3.9,1.9,4.8,4.3C-16.2,1390.8-14.7,1398.2-15.4,1407.4z"/>
<path d="M170.7,1615c-4.2-8.3-12.3-74.8-10.4-84.5c3.7,1,3.9,4.2,4.6,6.9c2.4,9,3.2,18.4,4,27.6c1.1,12.6,1.7,25.1,3.8,37.6
	C173.3,1606.8,173.8,1611.1,170.7,1615z"/>
<path d="M132.7,1622.8c-2.5,2.5-2.1,7.1-6.6,6.8c-2.4-0.1-10-6-10.6-8.3c-0.5-2,0.6-3.1,2.4-3.7c1.5-0.5,3,1.3,4.5,0.3
	c0.2-0.4,0.4-0.7,0.4-1c0.4-3.4-2.8-7.9,1.3-10.1c4.7-2.5,7,2.2,9.5,5c4.6,5.2,9,10.6,13.3,16c1.5,1.9,3.9,4.7,1,6.9
	c-2.5,1.9-5.2-0.2-7-2.1C138.1,1629.6,135.6,1626.2,132.7,1622.8z"/>
<path d="M231.5,1649.4c-1.1-0.3-1.9-1-1.8-2c0-1.3,0.1-2.7,0.6-3.9c7-18.7,15.7-36.4,28.7-51.8c0.6-0.8,1.2-1.6,1.9-2.3
	c0.8-0.7,1.8-0.7,2.6,0c0.4,0.4,0.7,1.3,0.5,1.8c-0.3,1.3-0.7,2.6-1.4,3.7c-10.7,16.3-19,34-28.1,51.2
	C233.7,1647.6,233.4,1649.2,231.5,1649.4z"/>
<path d="M258.9,1620.8c1.9,5.4-1,7.6-2.9,10.1c-2.6,3.4-5.4,6.6-8.1,9.8c-0.9,1-2.1,1.8-3.5,1.1c-2-1-1.4-2.7-0.7-4.2
	C247.2,1630.9,251.9,1625.3,258.9,1620.8z"/>
<path d="M35.6,1343.6c-0.5,2.9,1,7.5-2.7,7.5c-4.9,0-2.9-4.7-2.9-7.7c0-2.8-1.1-7.5,2.4-7.5C37.2,1335.9,34.5,1341.1,35.6,1343.6z"
	/>
<g>
	<path d="M437.3,147.4c-2.7-5.9-5.3-10.4-6.5-15.5c-2.4-10.1-1.3-20.2,0.6-30.1c5.8-29.6,21.2-52.9,49-68c16.5-9,33.4-10.5,51.4-4.4
		c11.7,3.9,18.4,11.9,21.6,22.7c5.3,17.9,1,34.8-6.9,51.1c-0.6,1.2-1.3,2.2-2,3.4c-0.2,0.4-0.3,0.8-0.6,1.6c3.3,1.1,6.6,2.1,9.8,3.4
		c13.4,5.2,20.9,14.7,22.3,28.7c1.2,12.1-3.8,20.9-14.3,27.6c-11.7,7.4-24.7,10.7-38.3,12.4c-1.8,0.2-3.5,0.5-5.3,0.8
		c-0.4,0.1-0.7,0.5-1.3,0.9c3.8,5.4,7.7,10.9,10.7,16.8c7.3,14.9,9.3,30.6,5.1,46.5c-5.6,21.4-30.8,35.1-52.9,29.4
		c-8.4-2.2-16.8-4.8-24.2-9.2c-11.6-6.9-24.2-9.5-37.6-9.9c-7.4-0.3-14.7-1.3-21.8-3.2c-17.4-4.7-30-14.8-37-31
		c-6.2-14.5-3.8-28.7,4.5-41.3c14-21.3,35.5-31.1,61.3-32.8C428.7,147,432.5,147.3,437.3,147.4z M440.9,191.4c-2.7,2-2.7,2-3.3,4.6
		c1.4-1.4,3-2.6,3.2-4.7c1.9-0.6,2.8-2.1,3.6-4.3C442.1,188.2,440.8,189.3,440.9,191.4z M449.5,219c0.3-2.8,3-4.1,4.4-6.1
		c1-1.4,2.3-2.7,1.6-5.5c-2.4,2.9-4.3,5.2-6.2,7.5c-1.2,1.4-0.9,2.7,0.3,4c-0.4,3-3.5,4.1-4.6,6.6c-0.2,0.6-0.5,1.2,0.2,1.7
		c0.5,0.4,1.3,0.6,1.7,0c2.5-2.8,4.8-5.7,6.2-9.4C451.1,217.7,450.8,219.4,449.5,219z M475.9,154.2c-1.2-6.9,2.3-11.5,5.9-15.9
		c1.9-2.4,4-4.6,6.2-6.7c12.2-11.6,26.1-20,43.4-22.4c2.3-0.3,4.1-1,5.3-3.2c5.7-10.8,9.8-22,9.2-34.4c-0.4-8-2.8-15.5-5.1-23.1
		c-1.1-3.7-3.3-7-7-9.1c-12.6-6.9-25.8-8.4-39.2-3.3c-12.1,4.6-22.2,12.3-30.8,21.8c-11.2,12.5-18.8,26.8-24,42.4
		c-0.6,1.9-0.9,3.8-1,5.6c-0.4,13.4,1.7,26.4,8.1,38.5c1.4,2.6,2.9,3.8,5.8,4.5C460.1,150.5,467.7,151.3,475.9,154.2z M428.9,199.1
		c-0.3-10-2.7-20.4-6.4-30.5c-1.1-3.1-2.3-6-4.2-8.7c-3.2-4.7-3.9-5-9.3-3.2c-7.8,2.5-15,6.1-21.9,10.6c-13,8.4-21.1,19.6-23.7,34.2
		c-2.3,13.2,0.5,25.5,11.8,34.2c9.1,7,19.7,11.5,31.3,13.8c4.1,0.8,6.2-0.6,8.1-3.7C423.1,231.5,427.9,216.3,428.9,199.1z
		 M484.4,157.9c6.2,3.5,11.8,6.6,16.7,10.7c3.4,2.9,7.4,4.1,11.6,4.2c13.7,0.3,27.1-0.8,38.6-9.2c5-3.6,8.8-7.8,10.7-13.5
		c2.2-6.4,1.2-12.7-0.8-19c-2.3-7.2-6.2-12.6-14.8-13.8c-4.8-0.7-8.5-0.5-11.6,3.8c-7.7,10.4-17.8,18.5-28.9,25.5
		C499.2,150.6,491.4,152.8,484.4,157.9z M455.5,156.8c14.8,36.3,5.1,67.1-19.9,95.2c0.6,0.7,1.9,1,3.2,1.2c4.7,0.6,9.2,2,13.2,4.3
		c2.8,1.6,4.8,1.1,7.1-1c5.6-5.2,8.4-12.3,13.5-17.9c3.7-4.1,5.4-9.4,7.3-14.4c6.4-16.7,10.5-33.7,7-51.7c-0.8-4.4-2.9-7-6.9-8.6
		C472.5,160.6,464.7,158.1,455.5,156.8z M479.3,268.6c8.9,3.8,16.4,2.4,23.8-0.6c13.9-5.5,23.7-14.9,25-29.8
		c0.9-10.6-0.5-21.4-3.7-31.7c-1.2-4.1-3.5-8-8.1-11.4C515.2,225.1,504,249.6,479.3,268.6z M529.7,117.8c-6,0.2-10.8,1.3-15.1,3.4
		c-8.9,4.4-17.3,9.6-24.8,16.2c-3,2.6-5.4,5.7-7,9.3c-0.6,1.3-1.6,2.9-0.1,4.2c1.4,1.3,2.9,0.2,4.3-0.3
		c13.3-4.9,24.8-12.5,34.5-22.5C524.2,125.2,527.5,122.5,529.7,117.8z M452.7,174.5c5.6-2.8,5.6-2.8,2.5-9
		C452,167.9,455.7,172,452.7,174.5z M482.1,260.9c-1.1-0.5-2.2,0.1-3.2,0.3c-1,0.2-2.3,0-2.5,1.5c0,0.3,0.4,0.7,0.6,1
		c0.9,1,2,0.8,2.9,0C481,263,482.3,262.4,482.1,260.9z M425.7,249.4c-0.7,0-1.4,0.1-1.6,0.8c-0.4,1.5,0.9,1.2,1.6,1.2
		c0.6,0,1.5-0.3,1.6-0.6C427.5,249.7,426.5,249.5,425.7,249.4z M484.9,255.9c2.2,0.9,3.7,0.6,5-2.1
		C487.5,253.7,486.1,254.3,484.9,255.9z"/>
	<path d="M402.5,641.1c1.4,14,1.3,29.4,1.1,44.8c0,0.5,0.1,1,0.1,1.5c-0.2,2.6,1.1,5.9-2.8,6.7c-2.8,0.6-5.2-2.1-5-6.8
		c0.4-10.5-1.9-20.8-1.3-31.2c0.5-9.2-0.2-18.4,0.3-27.6c0.8-17.1-3.6-33.5-6.6-50.1c-1.9-10.4-5.7-20-9.1-29.9
		c-6.2-17.9-27.6-18.8-37.5-7.9c-7.7,8.4-11.7,18.4-15.6,28.5c-1.9,4.9-2.6,10-3.5,15.2c-5.7,31.7-6,63.7-5.9,95.8
		c0,4.1,0.6,8.5-4.3,11c-2.2,1.1-3.2,0.4-4.3-1.2c-1.3-2-1.4-4.2-1.4-6.5c-0.5-32.6-1.7-65.3,3.1-97.6c2.9-19.4,9.9-37.9,25.2-51.2
		c16-13.8,34.1-15.3,50.1,3.3c11,12.8,13.9,29,15.7,45.1C402.9,601.8,402.6,620.8,402.5,641.1z"/>
	<path d="M154.2,365.8c-4.1-11.7-7.9-22.4-11.6-33.1c-1.6-4.7-2.6-9.6-2.5-14.6c0-2.3,0.1-4.6,2.9-5.3c2.7-0.7,4.1,1.2,5.5,3
		c0.6,0.8,0.9,1.8,1.4,2.6c10.1,16.5,21.4,32.2,31.8,48.5c10.4,16.4,22.2,31.7,35.2,46c0.5,0.5,0.6,1.3,1,2.3c-2.8,1-4.3-1-5.8-2.3
		c-16.8-14.9-32.2-30.9-44.1-50.2c-5.7-9.3-11.3-18.7-15.9-28.6c-0.8-1.8-2-3.3-3.5-5.7c-0.9,3.4,0.1,5.7,0.9,8
		c3.4,9.3,6.8,18.6,10.2,28c0.8,2.1,1.6,4.2,2.2,6.3c1.7,6.1,1.6,6.3-5.2,7.8c6.8,12.2,15.7,23.4,19.5,37.8c-4.5,0.1-5.3-3-6.4-5.1
		c-5.3-9.5-10.9-18.9-17-27.9c-7.1-10.4-14.2-20.9-21.9-30.9c-1.7-2.2-5.4-5-2.8-7.5c3.3-3.2,5.6,1.3,7.7,3.3
		C141.9,353.7,147.7,359.5,154.2,365.8z"/>
	<path d="M133.1,391.5c0.4-2.4-0.5-3.6-1.2-4.9c-0.8-1.7-1.3-3.4,0.4-4.7c1.5-1.1,3.6-1,4.9,0.2c1.9,1.7,7.5,1.7,3.3,6.6
		c-1,1.2,0,2.4,0.7,3.3c1.2,1.6,2.6,3,3.6,4.7c1.2,2,3.4,4.1,1.6,6.7c-1.7,2.5-4.1,0.1-6.2,0.6c-0.8,1.2,0.3,1.8,0.9,2.4
		c17,16.8,32,35.4,47.8,53.3c24.8,28.2,49.1,56.8,73.5,85.3c8.7,10.2,17.4,20.4,26.1,30.6c1.3,1.5,2.5,3.1,3.7,4.7
		c1.2,1.5,3.2,3.6,1.4,5.1c-2.1,1.8-3.3-1.1-4.5-2.5c-15.6-17.4-31.5-34.5-46.5-52.4c-25.6-30.2-52.2-59.4-78-89.3
		c-14.8-17.1-30.4-33.5-46.2-49.7c-1.6-1.7-4.9-3.2-3-6c2-2.9,4.4,0.1,6.5,0.9C125.6,387.8,128.8,390.5,133.1,391.5z"/>
	<path d="M587.4,396.3c-4.9,0.8-8.1,4.1-11.8,6.5c-1.5,0.9-2.9,2-4.4,2.7c-1.1,0.6-2.4,0.8-3.3-0.5c-0.8-1.1-1.3-2.2-0.4-3.4
		c2.5-3.7,5-7.4,8.3-10.5c0.9-0.9,2.7-1.8,3.3-0.9c3.3,4.4,5.5,0.4,7.9-0.8c4-2.1,7.7-4.6,11.5-6.8c2-1.1,4.2-2.3,6,0
		c1.7,2.1-0.4,3.5-1.5,5.1c-3,4.1-6.9,7.1-10.4,10.7c-15.5,15.7-31.4,31-45.6,48c-8.1,9.7-17.7,18.1-25.4,28.3
		c-15.8,20.8-34.3,39.2-49.9,60.2c-6,8.2-11.8,16.5-17.7,24.8c-7.3,10.2-14.6,20.4-22.3,31.1c-2.1-3.3-0.7-5.4,0.6-7.4
		c5.7-8.4,11.6-16.7,17.3-25.1c18.1-26.5,38.7-50.9,59.3-75.4c15.3-18.2,31.1-36.1,46.9-53.9c8.1-9.1,17-17.4,25.5-26.1
		C583.4,400.6,585.4,398.4,587.4,396.3z"/>
	<path d="M226.7,353.9c-2.2,1.1-1.5,3.6-2.6,5.2c-0.6,0.9-1.5,1.4-2.5,1.3c-1.2-0.1-1.7-1.1-1.5-2.1c2.8-13.4-3.7-24.6-7.9-36.5
		c-4.4-12.4-7.6-25.2-9.6-38.2c-0.2-1-0.4-2-0.3-2.9c0.3-2.6-0.7-6.2,2.9-6.8c2.9-0.5,4.9,1.9,6.4,4.3c1.5,2.3,2.4,4.9,3.2,7.5
		c3.8,12.6,7.8,25.1,8.9,38.4c0.7,8.5,3.9,16.4,7.6,24c4.5,9.1,9.3,18.1,14.9,26.6c0.7,1.1,2.6,2.3,0.9,3.8
		c-1.9,1.6-3.2-0.2-4.3-1.5c-4.3-5.1-7.7-11-11.1-16.7C230.3,357.8,229,355.5,226.7,353.9z"/>
	<path d="M490.5,318.9c-3.5-0.1-4.7,2.3-6.8,3c-4.4,1.4-6.9-0.4-6.1-5c1.3-7.6,4.5-14.6,7.7-21.6c0.6-1.3,1.1-2.7,1.8-4
		c0.3-0.6,1.1-1,1.9-0.7c0.8,0.3,1.2,0.8,1.2,1.6c0.2,2.3-0.9,4.3-1.7,6.4c-2.2,5.2-4.1,10.5-5.3,16c2.7,1.3,3.5-0.8,4.7-1.8
		c4.8-4,9.4-8.1,14-12.2c1.2-1.1,2.4-2.2,3.9-1.3c1.7,1.1,0.6,2.6,0,3.9c-2.6,7-6.4,13.4-9.6,20.2c-5.7,12.2-13.7,23-20.9,34.3
		c-9.4,14.7-17.9,29.9-28.5,43.9C458.1,372.4,476.2,347.1,490.5,318.9z"/>
	<path d="M524.2,360c-2.6,0.5-4,3.9-7.1,3c-0.9-1.7,0.2-3.1,1.1-3.9c6.6-5.5,12.7-11.8,20.5-16c1.6-0.8,3.2-2,4.7-0.2
		c1.6,1.9-0.3,3-1.4,4.4c-1.8,2.3-3.5,4.7-5.7,7.7c2.6,0.2,3.7-1.2,5-2c8-5,16.5-9.1,25.3-12.6c1.4-0.6,2.8-1.1,4.3-1.2
		c4.3-0.5,6.1,2,4.2,5.9c-3.1,6.3-8,11.3-12.5,16.5c-7.8,8.9-16.8,16.6-23.3,26.6c-0.8,1.2-1.6,3-3.3,1.7c-1.4-1-0.9-2.9,0-4
		c8-10,15-20.8,24-29.9c2.8-2.8,5.3-5.7,7.9-8.6c-1.6-2.3-2.9-0.8-4-0.2c-9.2,5.4-18.3,11-27.5,16.4c-2.3,1.4-4.7,2.9-7.3,3.7
		c-4.5,1.5-6.1-0.4-5-5.2c0.1-0.5,0.3-0.9,0.4-1.4C524.6,360.5,524.4,360.3,524.2,360z"/>
	<path d="M512.9,433.9c7.7-9.6,15.4-19.3,23.3-28.9c11.1-13.4,23.5-25.6,36.2-37.5c2-1.9,3.3-3.1,0.9-6c-1.7-2.1,0.5-4.6,3.2-3.2
		c4.1,2.1,6-0.2,8.2-2.5c2.2-2.3,4.5-4.7,6.8-6.9c0.9-0.9,2.1-1.4,3.3-0.6c1.3,1,0.9,2.2,0.1,3.3c-2.2,3-4.4,6-6.6,9
		c-1,1.3-2.1,2.2-1,4.5c2,4.2,1.4,5-2.6,3.9c-3.1-0.8-4.5,0.3-6.4,2.2c-17.6,18.2-36.6,35-53.1,54.4c-3.2,3.7-6.7,7.1-10.8,9.8
		C513.9,434.8,513.4,434.3,512.9,433.9z"/>
	<path d="M264.4,301.3c-0.7,8.6-0.8,17-2.7,25.2c-0.9,3.9-1.6,7.8-3.4,11.4c-1.6,3.2-4,5.7-8,5.6c-4.1,0-6.4-2.5-7.9-5.8
		c-1.9-4.2-2.5-8.5-0.1-13.1c3.2,2.4,2.4,6.3,3.9,9.2c0.9,1.7,1.2,4.1,3.7,4.1c2.5,0,3.3-2.2,3.9-4c3.3-9.9,5.6-20,4.1-30.6
		c-0.3-2-0.9-3.9-1-5.9c-0.4-5.3,2.5-7.2,7.5-4.9c11.5,5.3,21.4,29.7,16.9,41.5c-0.5,1.4-1.1,2.8-2,4c-0.9,1.3-2.4,1.9-3.9,1.1
		c-1.4-0.7-1.1-2.2-0.7-3.3C279.6,321.8,271.8,311.6,264.4,301.3z"/>
	<path d="M343.3,258.3c1.9,0,2.6,1.4,2.8,2.9c0.5,3.4,0.8,6.9,0.9,10.3c0.1,3.3,1.4,4.6,4.6,3.2c0.2-0.1,0.4-0.2,0.7-0.3
		c1.9-0.7,4.4-1.5,5.2,0.6c0.9,2.5-2,2.7-3.7,3.6c-5.7,2.9-5.7,2.9-4.4,9c1.2,5.8,2.5,11.6,4.4,17.3c0.6,1.6,1.1,3.4,1,5.1
		c-0.1,2.2-1.5,3-3.6,2c-2.2-1.1-3.1-3.2-4-5.2c-1.9-4.6-3.4-9.3-4.4-14.2c-0.3-1.7-0.7-3.4-1.4-5c-1.3-2.8-3.9-2.9-5.5-0.2
		c-1.4,2.3-2.5,4.8-3.8,7.2c-0.7,1.3-1.4,2.6-2.3,3.8c-0.9,1.1-2.1,2.6-3.6,1.2c-1.4-1.2-0.5-2.8,0.3-4c3.5-5.5,5.7-11.5,7.9-17.5
		c1.9-5.4,3.7-10.8,5.6-16.1C340.6,260.2,341.2,258.5,343.3,258.3z"/>
	<path d="M511.4,341.1c-4.9-2.7-8.2-0.5-11.2,2.7c-1.7,1.7-3,4.1-5.7,4.5c-0.6,0.1-1.5-0.2-2-0.6c-0.6-0.5-0.6-1.3-0.1-2
		c0.5-0.8,1.2-1.6,1.8-2.3c8.5-8.7,17.7-16.6,27-24.4c1.9-1.6,4.1-2.9,6.3-3.9c2.3-1,4.7,1.1,3.9,3.4c-0.9,2.5-2.5,4.8-3.8,7.2
		c-1.6,3-4.3,5.6-2.9,9.5c0.4,1-0.2,2-1.1,2.5c-5.8,3-7.5,9-10,14.2c-2.3,4.9-4.2,10.1-6.2,15.1c-0.6,1.4-1.1,3.1-2.9,2.8
		c-2.1-0.4-2.3-2.4-2.3-4.1c0-2.8,1-5.4,2-7.9C506.5,352.3,509,346.7,511.4,341.1z M512,334.4c4.3,0,5.8-2.1,6.6-6
		C515.2,329.7,513.5,331.4,512,334.4z"/>
	<path d="M420.4,282c2.7,1.8,4.4,0.2,6.3-0.2c9.6-2.1,16.3,4.8,13.6,14.2c-0.7,2.6-2.1,5.1-3.4,7.5c-4.3,8.1-10.7,14.3-17.4,20.3
		c-2.2,2-4.8,3.6-8.5,3.4c-0.4-4.1,2.4-6.3,4.9-8.4c5.6-4.9,10.9-10.2,16-15.6c2.4-2.6,4-5.7,5-9c1.9-6.4-0.5-9.4-7.2-9
		c-4,0.2-7.6,2.3-11.5,3c-2.5,0.4-5.8,2.8-7.5-0.2c-2-3.5,1.9-5.1,3.9-7.1c4.3-4,9.4-7.1,12.7-12.8c-4.2-1-7.3,0.8-10.5,1.7
		c-1.9,0.5-3.7,1.4-5.6,1.9c-1,0.3-2.1,0.1-2.7-0.8c-0.9-1.4,0.2-2.4,1.3-2.9c6-3.2,12.4-5,19.3-4.8c4.5,0.2,5.9,2.5,3.4,6.2
		c-1.5,2.2-3.6,4.1-5.5,6.1C425,277.5,422.9,279.6,420.4,282z"/>
	<path d="M295.3,278.5c-1.5,7.1-1,14-1.7,20.9c-0.7,6-3.8,11.2-4.7,17.1c-0.3,1.6-2,2.2-3.6,1.6c-1.5-0.6-2.3-1.9-1.9-3.6
		c0.1-0.5,0.3-0.9,0.6-1.4c5.5-9.2,5.4-19.4,5.5-29.6c0-1.2-0.2-2.5-0.1-3.7c0.1-2.9-1-6.6,2.3-8c3.2-1.4,6.3,0.8,8.6,3.1
		c9.5,9.4,15,20.9,15.9,34.3c0.2,3.3-0.1,6.5-3.3,8.5c-1.1,0.7-2.3,1-3.4,0.1c-0.8-0.7-1-1.7-0.7-2.7
		C313.1,299.6,302.8,289.5,295.3,278.5z"/>
	<path d="M466.3,290.9c-3.4,0.6-5.3,2.4-7.2,4.3c-5.3,5-9.5,10.8-13.9,16.5c-0.9,1.2-1.7,2.4-2.7,3.6c-0.6,0.8-1.5,1.5-2.6,0.9
		c-1.3-0.7-1.4-1.9-0.6-3.2c4.9-7.5,9.5-15.2,16.5-20.9c2.5-2,4.6-4.6,7.7-5.7c5.1-1.9,7.7-0.2,7.6,5.2c-0.1,4.3-1.6,8.2-2.9,12.3
		c-1.9,6.3-6,12.2-3.6,19.3c0.4,1.1-0.4,2.4-1.7,3c-1.3,0.6-2.4,0-3.5-0.7c-2.2-1.4-2.3-3.7-2.2-6c0.3-4.5,1.5-8.7,3.2-12.9
		C462.8,301.7,465.5,297,466.3,290.9z"/>
	<path d="M379.3,329.7c1.5-9.8,4.1-19.1,7.1-28.4c3.6-11.1,6.9-22.3,10.4-33.4c0.4-1.4,0.9-2.8,1.4-4.2c0.3-0.8,1.1-1.2,1.8-0.9
		c0.6,0.2,1.4,0.9,1.5,1.4c0.1,2.2,0.1,4.4-0.3,6.7c-2.4,12.5-6.8,24.4-10.2,36.6c-2.1,7.4-4.3,14.8-6.4,22.2
		c-0.3,1.2-0.5,2.4-1,3.6c-0.3,0.9-0.8,2-2,1.9c-1.6-0.1-1.9-1.4-2.1-2.6C379.3,331.5,379.4,330.5,379.3,329.7z"/>
	<path d="M204.8,349.9c-0.3,3.2-0.3,6.5,0.5,9.6c0.9,3.7,2.4,7.1,6.8,7.8c1.5,0.2,3.1,0.4,2.9,2.5c-0.1,2.1-1.6,3-3.4,3.4
		c-2.1,0.5-3.8-0.4-5.5-1.7c-3.2-2.5-5.7-5.7-7.2-9.3c-3.8-8.8-5.4-17.9-3.8-27.5c0.1-0.7,0.2-1.5,0.6-2.1c0.7-1.3,1.5-2.8,3.1-2.9
		c1.6,0,2.6,1.3,3.1,2.7C204.1,338.1,205.3,343.9,204.8,349.9z"/>
	<path d="M343.6,505.6c-3.1-6-9.2-55.5-7.8-63c2.8,0.7,2.9,3.1,3.4,5.1c1.8,6.8,2.4,13.7,3,20.6c0.8,9.4,1.3,18.8,2.8,28.1
		C345.6,499.5,346.1,502.8,343.6,505.6z"/>
	<path d="M305.4,516.9c-1.6,2.2-0.6,8.3-4.1,8c-1.8-0.2-7.8-4.8-7.7-6.4c0.1-3.9,4.9,0.6,6.9,0.9c1.4-1.9-2.1-6.7-2-8.6
		c0.3-3.2,2.4-4.4,5-2.6c1.6,1.1,3,2.6,4.2,4.1c3.3,4,6.6,8,9.8,12.1c0.9,1.1,1.8,2.7,0.7,4c-1.5,1.8-4.3-2.8-5.4-3.9
		C310.4,522.1,308.2,520,305.4,516.9z"/>
	<path d="M412.3,486.3c-0.2,4.1-20.7,42.1-23.6,45.2c-2.2-2-0.8-4.1,0-6C394.2,511,401.1,497.3,412.3,486.3z"/>
	<path d="M409.3,510.1c1.8,3.4-0.1,5-1.3,6.7c-1.8,2.6-4.5,4.5-6,7.4c-0.7,1.2-2.1,2.5-3.6,1.3c-1.5-1.2-0.3-2.7,0.4-3.9
		C401.2,517.1,404.6,513.3,409.3,510.1z"/>
	<path d="M238.5,302.4c0-0.4,0.1-1.6,0.2-2.9c0.1-1.3,0.5-2.5,2.1-2.4c1.3,0.1,1.4,1.2,1.5,2.2c0.2,1.2,0.4,2.5,0.3,3.7
		c-0.2,2.2,1.3,5.8-2.3,5.7C237.4,308.6,238.6,305.3,238.5,302.4z"/>
</g>
</svg>
